<?xml version="1.0" standalone="no"?><!DOCTYPE svg PUBLIC "-//W3C//DTD SVG 1.1//EN" "http://www.w3.org/Graphics/SVG/1.1/DTD/svg11.dtd"><svg t="1711097094505" class="icon" viewBox="0 0 1024 1024" version="1.1" xmlns="http://www.w3.org/2000/svg" p-id="2759" width="200" height="200" data-spm-anchor-id="a313x.search_index.0.i9.2f723a81sQVuMm" xmlns:xlink="http://www.w3.org/1999/xlink"><path d="M558.933333 699.733333l-170.666666-93.866666c-25.6 21.333333-55.466667 34.133333-89.6 34.133333-72.533333 0-128-55.466667-128-128s55.466667-128 128-128c38.4 0 68.266667 17.066667 93.866666 38.4L597.333333 320V298.666667c0-72.533333 55.466667-128 128-128s128 55.466667 128 128-55.466667 128-128 128c-34.133333 0-64-12.8-85.333333-34.133334l-213.333333 110.933334v21.333333l174.933333 98.133333c21.333333-17.066667 51.2-29.866667 81.066667-29.866666 72.533333 0 128 55.466667 128 128s-55.466667 128-128 128-128-55.466667-128-128c0-4.266667 0-12.8 4.266666-21.333334zM298.666667 554.666667c25.6 0 42.666667-17.066667 42.666666-42.666667s-17.066667-42.666667-42.666666-42.666667-42.666667 17.066667-42.666667 42.666667 17.066667 42.666667 42.666667 42.666667z m426.666666-213.333334c25.6 0 42.666667-17.066667 42.666667-42.666666s-17.066667-42.666667-42.666667-42.666667-42.666667 17.066667-42.666666 42.666667 17.066667 42.666667 42.666666 42.666666z m-42.666666 426.666667c25.6 0 42.666667-17.066667 42.666666-42.666667s-17.066667-42.666667-42.666666-42.666666-42.666667 17.066667-42.666667 42.666666 17.066667 42.666667 42.666667 42.666667z" fill="#8a8a8a" p-id="2760"></path></svg>